<svg xmlns="http://www.w3.org/2000/svg" xmlns:xlink="http://www.w3.org/1999/xlink" width="500" zoomAndPan="magnify" viewBox="0 0 375 374.999991" height="500" preserveAspectRatio="xMidYMid meet" version="1.0"><defs><g/><clipPath id="9b05c3c7c9"><path d="M 237.914062 150.308594 L 314.535156 150.308594 L 314.535156 247.585938 L 237.914062 247.585938 Z M 237.914062 150.308594 " clip-rule="nonzero"/></clipPath><clipPath id="95aea9fc71"><path d="M 276.226562 150.308594 L 314.535156 247.546875 L 237.914062 247.546875 Z M 276.226562 150.308594 " clip-rule="nonzero"/></clipPath><clipPath id="40c6158cb3"><path d="M 60.464844 150.308594 L 276.226562 150.308594 L 276.226562 247.546875 L 60.464844 247.546875 Z M 60.464844 150.308594 " clip-rule="nonzero"/></clipPath><clipPath id="c2c7dd655e"><path d="M 299.449219 237.179688 L 307.253906 237.179688 L 307.253906 244.984375 L 299.449219 244.984375 Z M 299.449219 237.179688 " clip-rule="nonzero"/></clipPath><clipPath id="3ec464503c"><path d="M 303.351562 237.179688 C 301.199219 237.179688 299.449219 238.925781 299.449219 241.082031 C 299.449219 243.238281 301.199219 244.984375 303.351562 244.984375 C 305.507812 244.984375 307.253906 243.238281 307.253906 241.082031 C 307.253906 238.925781 305.507812 237.179688 303.351562 237.179688 Z M 303.351562 237.179688 " clip-rule="nonzero"/></clipPath></defs><g clip-path="url(#9b05c3c7c9)"><g clip-path="url(#95aea9fc71)"><path fill="#ffffff" d="M 237.914062 150.308594 L 314.535156 150.308594 L 314.535156 247.585938 L 237.914062 247.585938 Z M 237.914062 150.308594 " fill-opacity="1" fill-rule="nonzero"/></g></g><g clip-path="url(#40c6158cb3)"><path fill="#ffffff" d="M 60.464844 150.308594 L 276.214844 150.308594 L 276.214844 247.546875 L 60.464844 247.546875 Z M 60.464844 150.308594 " fill-opacity="1" fill-rule="nonzero"/></g><g fill="#000000" fill-opacity="1"><g transform="translate(63.429053, 245.624984)"><g><path d="M 74.234375 -1.75 C 74.617188 -1.28125 74.695312 -0.867188 74.46875 -0.515625 C 74.238281 -0.171875 73.8125 0 73.1875 0 L 53.171875 0 C 52.710938 0 52.363281 -0.113281 52.125 -0.34375 L 25.015625 -33.859375 C 24.628906 -33.472656 23.753906 -32.519531 22.390625 -31 C 21.035156 -29.488281 19.40625 -27.664062 17.5 -25.53125 C 15.601562 -23.40625 13.644531 -21.195312 11.625 -18.90625 C 9.613281 -16.613281 7.71875 -14.457031 5.9375 -12.4375 C 4.15625 -10.425781 2.71875 -8.800781 1.625 -7.5625 C 0.539062 -6.320312 0 -5.703125 0 -5.703125 L 0 -92.046875 C 0 -92.742188 0.425781 -93.09375 1.28125 -93.09375 L 16.640625 -93.09375 C 17.410156 -93.09375 17.796875 -92.742188 17.796875 -92.046875 L 17.796875 -49.6875 L 52.828125 -92.734375 C 53.054688 -92.972656 53.40625 -93.09375 53.875 -93.09375 L 72.84375 -93.09375 C 73.457031 -93.09375 73.878906 -92.894531 74.109375 -92.5 C 74.347656 -92.113281 74.273438 -91.726562 73.890625 -91.34375 L 36.890625 -45.734375 Z M 74.234375 -1.75 "/></g></g></g><g fill="#000000" fill-opacity="1"><g transform="translate(141.728345, 245.624984)"><g><path d="M 44.21875 -17.34375 L 44.21875 0 L 1.28125 0 C 0.425781 0 0 -0.347656 0 -1.046875 L 0 -92.046875 C 0 -92.742188 0.425781 -93.09375 1.28125 -93.09375 L 44.21875 -93.09375 L 44.21875 -76.21875 L 17.796875 -76.21875 L 17.796875 -55.15625 L 54.34375 -55.15625 C 55.195312 -55.15625 55.625 -54.804688 55.625 -54.109375 L 55.625 -39.328125 C 55.625 -38.628906 55.195312 -38.28125 54.34375 -38.28125 L 17.796875 -38.28125 L 17.796875 -17.34375 Z M 44.21875 -17.34375 "/></g></g></g><g fill="#000000" fill-opacity="1"><g transform="translate(200.132863, 245.624984)"><g><path d="M 52.828125 -75.28125 L 74.46875 -75.28125 L 52.015625 -43.75 L 52.015625 -1.046875 C 52.015625 -0.347656 51.585938 0 50.734375 0 L 35.484375 0 C 34.628906 0 34.203125 -0.347656 34.203125 -1.046875 L 34.203125 -43.75 C 28.617188 -51.738281 22.976562 -59.6875 17.28125 -67.59375 C 11.582031 -75.507812 5.898438 -83.425781 0.234375 -91.34375 C -0.078125 -91.726562 -0.117188 -92.113281 0.109375 -92.5 C 0.347656 -92.894531 0.773438 -93.09375 1.390625 -93.09375 L 19.78125 -93.09375 C 20.320312 -93.09375 20.707031 -92.972656 20.9375 -92.734375 L 43.046875 -61.671875 Z M 52.828125 -75.28125 "/></g></g></g><g clip-path="url(#c2c7dd655e)"><g clip-path="url(#3ec464503c)"><path fill="#000000" d="M 299.449219 237.179688 L 307.253906 237.179688 L 307.253906 244.984375 L 299.449219 244.984375 Z M 299.449219 237.179688 " fill-opacity="1" fill-rule="nonzero"/></g></g><g fill="#000000" fill-opacity="1"><g transform="translate(265.378802, 198.92841)"><g><path d="M 0 6.34375 L 0 3.5625 L 8.734375 0.40625 L 8.734375 2.890625 L 1.765625 4.96875 L 8.734375 7.078125 L 8.734375 9.484375 Z M 0 6.34375 "/></g></g></g><g fill="#000000" fill-opacity="1"><g transform="translate(265.378802, 208.319859)"><g><path d="M 0 3.296875 L 0 1.015625 L 8.734375 1.015625 L 8.734375 3.296875 Z M 0 3.296875 "/></g></g></g><g fill="#000000" fill-opacity="1"><g transform="translate(265.378802, 212.294138)"><g><path d="M 8.90625 4.078125 C 8.90625 4.847656 8.78125 5.472656 8.53125 5.953125 C 8.28125 6.441406 7.9375 6.8125 7.5 7.0625 C 7.0625 7.3125 6.570312 7.46875 6.03125 7.53125 L 6.03125 5.25 C 6.394531 5.195312 6.6875 5.070312 6.90625 4.875 C 7.125 4.675781 7.234375 4.394531 7.234375 4.03125 C 7.234375 3.757812 7.171875 3.546875 7.046875 3.390625 C 6.921875 3.234375 6.722656 3.15625 6.453125 3.15625 C 6.171875 3.15625 5.9375 3.28125 5.75 3.53125 C 5.5625 3.789062 5.382812 4.28125 5.21875 5 C 4.988281 5.957031 4.640625 6.644531 4.171875 7.0625 C 3.703125 7.488281 3.128906 7.703125 2.453125 7.703125 C 1.867188 7.703125 1.382812 7.535156 1 7.203125 C 0.613281 6.878906 0.320312 6.457031 0.125 5.9375 C -0.0703125 5.414062 -0.171875 4.863281 -0.171875 4.28125 C -0.171875 3.175781 0.0546875 2.273438 0.515625 1.578125 C 0.972656 0.878906 1.691406 0.5 2.671875 0.4375 L 2.671875 2.703125 C 2.253906 2.785156 1.953125 2.972656 1.765625 3.265625 C 1.585938 3.554688 1.5 3.875 1.5 4.21875 C 1.5 4.539062 1.570312 4.804688 1.71875 5.015625 C 1.875 5.222656 2.066406 5.328125 2.296875 5.328125 C 2.523438 5.328125 2.734375 5.226562 2.921875 5.03125 C 3.117188 4.832031 3.285156 4.460938 3.421875 3.921875 C 3.585938 3.265625 3.78125 2.695312 4 2.21875 C 4.21875 1.75 4.503906 1.390625 4.859375 1.140625 C 5.222656 0.890625 5.695312 0.765625 6.28125 0.765625 C 6.84375 0.765625 7.316406 0.921875 7.703125 1.234375 C 8.097656 1.546875 8.394531 1.953125 8.59375 2.453125 C 8.800781 2.953125 8.90625 3.492188 8.90625 4.078125 Z M 8.90625 4.078125 "/></g></g></g><g fill="#000000" fill-opacity="1"><g transform="translate(265.378802, 220.217378)"><g><path d="M 8.734375 8.609375 L 3.828125 8.609375 C 3.609375 8.609375 3.414062 8.601562 3.25 8.59375 C 3.082031 8.59375 2.867188 8.582031 2.609375 8.5625 C 2.117188 8.53125 1.660156 8.382812 1.234375 8.125 C 0.816406 7.863281 0.476562 7.457031 0.21875 6.90625 C -0.0390625 6.363281 -0.171875 5.640625 -0.171875 4.734375 C -0.171875 3.835938 -0.0390625 3.113281 0.21875 2.5625 C 0.476562 2.007812 0.816406 1.601562 1.234375 1.34375 C 1.660156 1.082031 2.117188 0.9375 2.609375 0.90625 C 2.867188 0.882812 3.082031 0.867188 3.25 0.859375 C 3.414062 0.859375 3.609375 0.859375 3.828125 0.859375 L 8.734375 0.859375 L 8.734375 3.140625 L 3.421875 3.140625 C 3.296875 3.140625 3.195312 3.140625 3.125 3.140625 C 3.050781 3.140625 2.972656 3.144531 2.890625 3.15625 C 1.960938 3.21875 1.5 3.742188 1.5 4.734375 C 1.5 5.722656 1.960938 6.25 2.890625 6.3125 C 2.972656 6.320312 3.050781 6.328125 3.125 6.328125 C 3.195312 6.328125 3.296875 6.328125 3.421875 6.328125 L 8.734375 6.328125 Z M 8.734375 8.609375 "/></g></g></g><g fill="#000000" fill-opacity="1"><g transform="translate(265.378802, 229.153134)"><g><path d="M 2.265625 5.921875 L 2.265625 3.203125 L 0 2.46875 L 0 0.046875 L 8.734375 3.203125 L 8.734375 5.984375 L 0 9.140625 L 0 6.65625 Z M 6.71875 4.5625 L 4.03125 3.765625 L 4.03125 5.375 Z M 6.71875 4.5625 "/></g></g></g><g fill="#000000" fill-opacity="1"><g transform="translate(265.378802, 238.101585)"><g><path d="M 1.921875 7.703125 L 0 7.703125 L 0 1.015625 L 8.734375 1.015625 L 8.734375 3.296875 L 1.921875 3.296875 Z M 1.921875 7.703125 "/></g></g></g></svg>